<svg xmlns="http://www.w3.org/2000/svg" viewBox="0 0 2834.6 480.1">
  <path d="M1846.7 55.6c9.9 7.9 17.4 17.2 22.4 27.7 5.1 10.6 7.7 22.5 7.6 35.6l.2 138.1 56.2-.1v-138c0-13.1 2.5-25 7.4-35.6 5-10.6 12.4-19.8 22.3-27.7h-116.1zM2135.9 55.6c10 7.9 17.3 17.2 22.4 27.7 5.1 10.6 7.7 22.5 7.6 35.6l.1 138.1 56.2-.1v-138c0-13.1 2.4-25 7.4-35.6 5-10.6 12.3-19.8 22.3-27.7h-116zM2656.7 55.6c9.9 7.9 17.3 17.2 22.4 27.7 5.1 10.6 7.7 22.5 7.6 35.6l.2 138.1 56.2-.1v-138c0-13.1 2.4-25 7.4-35.6 5-10.6 12.4-19.8 22.3-27.7h-116.1zM292.3 55.6c9.9 7.9 17.3 17.2 22.4 27.7 5 10.6 7.7 22.5 7.6 35.6l.1 138.1 50.4-.1v-138c0-13.1 2.4-25 7.4-35.6 5-10.6 12.4-19.8 22.3-27.7H292.3zM177.7 69.7c-.6-1.5-4.3-8.7 2.6-14.2H61.8c9.9 7.9 17.3 17.1 22.3 27.7 4.9 10.6 7.4 22.5 7.4 35.6v138h50.3V133.7c11.6 22 65.9 123.1 65.9 123.1h70.4c.1.1-100.1-186.3-100.4-187.1zM662.5 78.7c-5.9-14.9 3.1-21.2 5.3-23.1H571c2.1 2 11.1 8.3 5.3 23.1l-69.8 178.2h66.4l46.6-118 46.6 118h66.4l-70-178.2zM1340 78.7c-5.9-14.9 3.2-21.2 5.3-23.2h-96.8c2.1 2 11.1 8.3 5.3 23.2L1184 256.9h66.4l46.6-118 46.6 118h66.4l-70-178.2zM1801 79.3c-13.2-11-33.7-26-74.7-26-5.4 0-78.1 2.2-135.2 2.2h-59.4c9.8 7.9 17.1 17.1 22 27.7 5 10.6 7.7 22.4 7.7 35.6l-.1 138.1H1757c9.9-3 18.5-5.9 24-9.4 19.7-12.3 31.3-22.9 40-37.3 8.6-14.3 13.9-31.5 13.9-51.5-.1-32.1-12-61.1-33.9-79.4zM1734.1 211c-32.9 7.9-92.1 18.1-113.2 21.7-4.4.8-3.6-3.4-3.6-3.4V124.1c0-10.5 1.3-9.8 13.2-11.6 14.3-2.2 34.3-5.2 59.3-8 33.6-3.7 85-.9 87.1 52.5.7 20.7-11.7 46.5-42.8 54zM1128.1 79.3c-13.2-11-33.7-26-74.7-26-5.4 0-78.1 2.2-135.2 2.2h-59.4c9.8 7.9 17 17.1 22 27.7 5 10.6 7.7 22.4 7.7 35.6l-.1 138.2h195.7c9.8-3 18.5-5.9 24-9.4 19.7-12.3 31.4-22.9 40-37.3 8.6-14.3 13.8-31.5 13.8-51.5 0-32.2-11.9-61.2-33.8-79.5zM1061.2 211c-32.9 7.9-92.1 18.1-113.2 21.7-4.4.8-3.6-3.4-3.6-3.4V124.1c0-10.5 1.3-9.8 13.2-11.6 14.3-2.2 34.3-5.2 59.4-8 33.6-3.7 85-.9 87 52.5.8 20.7-11.7 46.5-42.8 54zM2597.7 145.9c0-26.3-17.3-49.2-17.3-49.2-31.6-47.4-103.4-43.1-103.4-43.1-5.4 0-78.1 2.2-135.2 2.2h-59.4c9.8 7.9 17.1 17.1 22 27.7 5 10.6 7.7 22.4 7.7 35.6l-.1 138.1h242.4c-8.8-7.3-19.9-13.3-34.2-15.9l5.6-1.8c64.6-19.4 71.9-67.2 71.9-93.6zm-187.2 84.3H2368V147s-1.1-21.8 10.3-31.5c7.5-6.4 27.6-9.5 41.2-10.8 19.1-1.7 61.3-.2 77 3 21.5 4.4 42.8 14.8 42.8 46.4 0 31.7-34 76.1-128.8 76.1z"></path><g><path d="M278.2 257l44.3 82.7V257z"></path><path d="M0 0v481.5h2834.6V0H0zm2554.1 257l.2.2c24.8 20.8 30 52.8 30 52.8l10.4 66.7c4.8 38.3 31.2 52.4 31.2 52.4h-63.8c-28.1 0-28-38.1-28-38.1v-33c-4.2-30.2-4.2-32.5-23.4-54.3-21.4-24.3-69.2-23-69.2-23h-73.6v84.6c0 13.4 2.4 25.4 7.4 36.2 5 10.7 12.4 19.8 22.3 27.7H2282c9.9-7.9 17.4-17 22.3-27.7 5-10.8 7.4-22.8 7.4-36.2l.2-108.1m-378.8-.2v108.7c0 13.1 2.5 25 7.4 35.6 5 10.6 12.4 19.8 22.3 27.7h-116.1c9.9-7.9 17.4-17.2 22.4-27.7 5.1-10.6 7.7-22.5 7.6-35.6l.2-108.7H1757c-21.1 7-103.1 23.8-115.1 27.5-8.7 2.7-24.5 10.6-24.5 33.8v46.6c0 13.4 2.4 25.4 7.4 36.2 5 10.8 12.4 20.1 22.3 28h-115.6c9.9-7.9 17.4-17.2 22.3-28 5-10.8 7.4-22.8 7.4-36.2l.2-107.9H1410l46.3 117.8c15.3 32.9 31.1 45.4 41.5 54.2h-118.6c13.7-13.7 15.4-28.1 15.4-34.6 0-5.5-1.8-39.6-36.9-39.6h-121.5c-35.1 0-36.9 34.1-36.9 39.6 0 6.5 1.7 20.9 15.5 34.6h-118.7c10.3-8.8 26.2-21.3 41.5-54.2L1184 257h-99.9c-21.1 7-103.2 23.8-115.1 27.5-8.7 2.7-24.6 10.6-24.6 33.8v46.6c0 13.4 2.5 25.4 7.4 36.2 5 10.8 12.4 20.1 22.3 28H858.5c9.9-7.9 17.3-17.2 22.3-28s7.4-22.8 7.4-36.2l.2-107.9H732.3l46.4 117.8c15.3 32.9 31.2 45.4 41.5 54.2H701.5c13.7-13.7 15.5-28.1 15.5-34.6 0-5.5-1.8-39.6-36.8-39.6H558.6c-35.1 0-36.9 34.1-36.9 39.6 0 6.5 1.8 20.9 15.5 34.6H418.6c10.3-8.8 26.1-21.3 41.5-54.2L506.4 257H372.8c0 1.4-.2 157.7 0 162.7.1 3.7 1.3 6.3 3.7 9.4h-86.7c0-.2 3.6-2.6 4.1-7.2.5-4.3-1.6-7.5-1.6-7.5L207.8 257h-65.9l-.1 107.9c-.2 13.4 2.8 25.4 7.9 36.2 5.1 10.8 12.5 20.1 22.4 28H61.8c9.9-7.9 17.3-17.2 22.3-28 4.9-10.8 7.4-22.8 7.4-36.2V257H12.9V13h2808.8v244h-78.6v108.7c0 13.1 2.4 25 7.4 35.6 5 10.6 12.4 19.8 22.3 27.7h-116.1c9.9-7.9 17.3-17.2 22.4-27.7 5.1-10.6 7.7-22.5 7.6-35.6l.2-108.7h-464.7v68.6c0 33.1-27 103.4-110.6 103.4-52.2 0-79.6-25.3-96.3-17-4.6 2.3-10.6 4.1-14.2 17.7V290.2c3.3 36.8 19.8 52.4 39.1 66.6 24.2 17.7 42.2 20.7 63.9 20.7 28.6 0 46.5-20.8 46.5-20.8s15.4-14.3 15.4-39.3V257h-232.9z"></path><path d="M689 314.8L666 257h-93.2l-23 57.8zM1366.5 314.8l-23-57.8h-93.2l-23 57.8z"></path></g></svg>